#!OML:ASF F:\VICON\USERDATA\INSTALL\rory3\rory3.ASF
:FULLY-SPECIFIED
:DEGREES
44
root 0.6707212604142879 17.69279107491441 21.200220371709825 -1.5712683362280195 2.8831256889494434 0.9431239825889342
lfemur 12.757388609009837 -2.498189465061997 -25.82480117551972
ltibia 20.80524281831586
lfoot -5.342573148424879 -4.300100642337753
ltoes -9.78834361627734
rfemur -28.07175492404852 2.2580063294366135 19.94925198589351
rtibia 28.65254322311113
rfoot -7.673347227914064 -12.902314351936559
rtoes -0.4610499011348841
lowerback 10.697897894473847 -1.337627349080107 -4.468289398182997
upperback 0.2369567137052938 -1.8046616789230854 1.5170204348729195
thorax -5.65733661033808 -0.6218495442506258 4.078724757847197
lowerneck -16.867124920661475 -3.026563723266618 -2.352935705839667
upperneck 21.460858051057834 -4.740395941188855 1.5302553565451171
head 9.562917256007065 -2.0927390885409163 0.2703787770854655
lclavicle 2.9992450738760367e-16 5.589843743520283e-17
lhumerus -24.140179228301733 -2.5364057029188074 81.72971726674248
lradius 29.055910052160165
lwrist 8.679351244708625
lhand -29.05457435493085 20.109491946216444
lfingers 7.125020000000001
lthumb -2.1644025026144615 50.581326167391325
rclavicle 2.980854385916964e-16 5.457783839812629e-17
rhumerus -36.087160202256875 -24.50706565173573 -74.59555214338205
rradius 25.749135725539293
rwrist 4.223684544343752
rhand -18.12186009209347 23.480055250831438
rfingers 7.125020000000001
rthumb 7.812359135225939 -7.03023361451182
45
root 0.6121612832688816 17.69829797551312 22.61649070986678 -1.827218197992849 2.7684767542427444 0.21158696247830067
lfemur 13.666194531722667 -3.234217304488115 -25.00905092561265
ltibia 21.231889170333318
lfoot -4.111121317035211 -6.994459080485497
ltoes -9.438539630886227
rfemur -28.461857089882052 0.892450302089141 21.82932906502775
rtibia 31.45301639936067
rfoot -7.563913735353477 -12.145353809000666
rtoes -0.25243527031002433
lowerback 10.54620147912086 -1.353954196779272 -4.193506874232173
upperback 0.18765830380666138 -1.8093721929567932 1.6342824316736841
thorax -5.632914664138208 -0.6635232407483868 4.132002604708406
lowerneck -16.80394197867203 -3.033069159334462 -2.220601968039024
upperneck 21.465091289012125 -4.684775406245406 1.5392985151146503
head 9.548901786064647 -2.0932133714159056 0.26742103071048356
lclavicle 2.999245079819263e-16 5.589843786197418e-17
lhumerus -24.005781366679244 -2.3891877568446245 81.80054137310282
lradius 28.587869151309285
lwrist 8.461732551597366
lhand -29.094012652515847 20.11985296516327
lfingers 7.125020000000001
lthumb -2.111568221834007 50.876741387797594
rclavicle 2.9808543853974255e-16 5.457783836081928e-17
rhumerus -37.1559334361337 -25.959045927668914 -73.36131886761439
rradius 24.805298387659747
rwrist 4.828544285375637
rhand -18.10696777068235 23.413813079411447
rfingers 7.125020000000001
rthumb 7.799751189515906 -7.164431770506993
46
root 0.5503760473198591 17.737149880219256 23.775635788769403 -2.2060169235157967 2.554164480833678 -0.8472962482341124
lfemur 13.59415017062372 -4.275172114691285 -23.95964278139429
ltibia 23.116525939002628
lfoot -2.272775800230664 -8.252527205961666
ltoes -7.871859136401378
rfemur -27.58780502558711 0.7927635207471222 23.498982001132422
rtibia 34.11863562153745
rfoot -6.831217085383884 -11.023865196738813
rtoes 0.7479541666551459
lowerback 10.390587629928904 -1.3328208108655726 -3.475847672074992
upperback 0.12827629763622098 -1.690802940439214 1.8412287558760212
thorax -5.616286632009252 -0.662179102686336 4.06708651422653
lowerneck -16.723571284245327 -3.0531384373774806 -2.0975481739291455
upperneck 21.533213946071914 -4.580856854583128 1.5793080079340045
head 9.545172887896454 -2.0867515770049874 0.27144840518193225
lclavicle 2.999245081303546e-16 5.589843796855765e-17
lhumerus -24.249905018587555 -2.034359686729293 81.89940060534536
lradius 27.987812707035122
lwrist 8.129100020213361
lhand -29.182921477988994 19.996033280994048
lfingers 7.125020000000001
lthumb -2.192989406926655 50.76072890136434
rclavicle 2.980854382430355e-16 5.4577838147759794e-17
rhumerus -38.42156218119467 -27.718823546540083 -71.83472770196515
rradius 24.060007168812557
rwrist 5.438573722088475
rhand -18.070005112949854 23.36284807493423
rfingers 7.125020000000001
rthumb 7.850195389501801 -7.223502758136477
47
root 0.4846682428335857 17.79751486416169 24.573637476020416 -2.6633265231982812 2.295626694232961 -2.1106124967714104
lfemur 12.170473052775467 -4.981437229424559 -22.256757496781155
ltibia 27.378896588713765
lfoot -0.49231047879165324 -8.735196713129351
ltoes -7.7583155829847446
rfemur -25.271340289275038 1.3103118805122174 25.332489343358496
rtibia 35.97549941900584
rfoot -5.930170541798216 -9.770300020909968
rtoes 2.3537632389547825
lowerback 10.244900794398786 -1.3039253444986147 -2.4272101219945545
upperback 0.0711307693096912 -1.4761193254779985 2.079990263043794
thorax -5.646109370523734 -0.6399820946610623 3.80688853893714
lowerneck -16.688863030546685 -3.1041312302930173 -2.0084515649760366
upperneck 21.64928095019855 -4.439959977856181 1.6283229641267274
head 9.551516022840953 -2.071541330052291 0.27954798732221386
lclavicle 2.9992450829284655e-16 5.589843808523989e-17
lhumerus -24.867244153972553 -1.614136335277586 82.043439929476
lradius 27.402863631252934
lwrist 7.7289869578295
lhand -29.23905966785974 19.971238560523194
lfingers 7.125020000000001
lthumb -2.2324543723749493 50.85085439956476
rclavicle 2.980854383161483e-16 5.457783820026066e-17
rhumerus -39.59014881107894 -29.416768311140522 -70.12506219866387
rradius 23.611701896184105
rwrist 5.787096892878345
rhand -18.03519744157386 23.33047984847775
rfingers 7.125020000000001
rthumb 7.911077513596874 -7.190946314382326
